<?xml version="1.0" standalone="no"?>
<!DOCTYPE svg PUBLIC "-//W3C//DTD SVG 20010904//EN"
 "http://www.w3.org/TR/2001/REC-SVG-20010904/DTD/svg10.dtd">
<svg version="1.0" xmlns="http://www.w3.org/2000/svg"
 width="200.000000pt" height="200.000000pt" viewBox="0 0 200.000000 200.000000"
 preserveAspectRatio="xMidYMid meet">
<metadata>
Created by potrace 1.11, written by Peter Selinger 2001-2013
</metadata>
<g transform="translate(0.000000,200.000000) scale(0.100000,-0.100000)"
fill="#000000" stroke="none">
<path d="M480 1600 l0 -249 93 -3 92 -3 -3 -51 c-3 -45 -1 -54 23 -72 56 -44
119 -1 113 77 l-3 46 93 3 92 3 0 69 0 70 -41 0 c-31 0 -47 6 -69 29 -72 72
-37 177 63 188 l47 6 0 68 0 69 -250 0 -250 0 0 -250z"/>
<path d="M1024 1835 c-2 -5 -5 -48 -6 -95 -3 -70 -6 -84 -18 -81 -70 16 -106
3 -119 -46 -16 -59 38 -106 99 -84 38 13 39 12 42 -99 l3 -85 60 -1 c77 0 83
2 77 32 -11 58 46 116 113 116 61 0 100 -43 107 -117 l3 -30 68 0 67 0 0 250
0 250 -246 0 c-158 0 -248 -3 -250 -10z"/>
<path d="M1224 1438 c-31 -15 -43 -47 -32 -86 5 -19 7 -37 3 -40 -3 -3 -43 -7
-88 -8 -45 -1 -85 -2 -89 -3 -5 0 -8 -33 -8 -71 l0 -71 28 4 c30 5 56 -6 89
-36 72 -65 4 -199 -91 -181 l-27 5 3 -73 3 -73 248 0 247 -1 -2 250 -3 251
-85 1 c-47 1 -88 2 -92 3 -4 0 -5 21 -1 46 5 39 2 49 -17 70 -25 26 -51 30
-86 13z"/>
<path d="M493 1312 l-23 -3 0 -250 0 -249 250 0 249 0 3 93 3 92 47 -3 c40 -3
51 0 74 23 20 20 24 32 19 53 -13 51 -50 75 -95 62 -45 -13 -50 -5 -50 90 0
100 2 98 -92 92 -48 -4 -48 -4 -48 -41 0 -81 -81 -131 -156 -95 -40 19 -68 65
-61 101 2 13 0 26 -6 30 -11 7 -80 10 -114 5z"/>
<path d="M100 700 c0 -19 3 -21 9 -11 10 16 98 24 107 9 10 -15 4 -291 -6
-303 -6 -8 2 -11 30 -11 34 1 37 3 25 16 -10 11 -13 53 -13 161 l0 147 42 -3
c22 -1 51 -5 63 -9 16 -5 21 -3 19 9 -2 14 -22 16 -139 18 l-137 2 0 -25z"/>
<path d="M433 709 c15 -9 17 -27 17 -151 0 -109 -3 -145 -14 -157 -13 -14 -10
-16 28 -17 37 0 42 2 30 14 -11 10 -14 49 -14 161 l0 148 34 -2 c19 -2 43 -8
54 -14 25 -13 36 -59 23 -94 -11 -27 -54 -52 -72 -41 -18 11 -8 -6 41 -72 53
-71 71 -87 108 -97 29 -7 28 -1 -7 29 -37 31 -105 124 -91 124 25 0 60 50 60
85 0 49 -13 71 -51 84 -42 14 -171 15 -146 0z"/>
<path d="M733 713 c21 -6 19 8 21 -157 1 -120 -1 -141 -15 -155 -16 -15 -14
-16 21 -16 37 0 39 1 33 25 -4 14 -6 85 -6 159 1 101 4 136 14 142 9 6 -5 8
-36 8 -27 -1 -42 -3 -32 -6z"/>
<path d="M910 563 c0 -102 -4 -163 -10 -163 -5 0 -10 -4 -10 -8 0 -5 14 -8 30
-8 30 0 39 9 20 21 -6 4 -10 57 -10 128 l1 122 127 -133 c70 -73 129 -132 132
-132 3 0 4 68 2 152 -3 136 -1 154 14 165 15 11 12 13 -27 13 -35 -1 -40 -3
-26 -11 15 -9 17 -26 17 -135 l0 -124 -64 67 c-35 38 -93 100 -130 138 l-66
70 0 -162z"/>
<path d="M1397 689 c-8 -19 -36 -86 -62 -149 -26 -63 -56 -123 -67 -132 -11
-10 -16 -18 -12 -19 52 -6 72 -4 63 8 -8 9 -6 25 6 57 19 49 32 55 108 47 32
-3 40 -8 52 -38 18 -43 19 -70 3 -75 -6 -2 10 -4 35 -4 51 1 54 3 33 20 -8 6
-42 79 -76 161 -34 83 -63 152 -65 154 -2 2 -10 -12 -18 -30z m43 -103 c11
-33 20 -62 20 -65 0 -3 -25 -6 -55 -6 -45 0 -54 3 -50 15 34 93 51 128 57 122
4 -4 17 -34 28 -66z"/>
<path d="M1609 708 c14 -7 44 -45 69 -85 l44 -72 -52 -75 c-29 -42 -56 -76
-61 -76 -5 0 -9 -4 -9 -8 0 -5 15 -8 33 -7 23 1 31 6 29 18 -1 9 14 42 35 72
42 64 38 64 90 -23 18 -31 22 -46 14 -55 -8 -10 -2 -13 29 -13 43 1 48 7 26
25 -20 17 -99 149 -94 159 12 32 86 133 103 140 16 8 9 10 -28 10 -39 0 -46
-2 -37 -13 8 -10 3 -26 -20 -64 -18 -28 -35 -51 -38 -51 -15 0 -70 105 -61
116 6 7 -8 11 -44 12 -48 2 -50 1 -28 -10z"/>
<path d="M321 351 c-9 -6 -10 -14 -3 -27 9 -18 8 -77 -3 -120 -3 -12 1 -27 9
-33 17 -14 27 -2 21 27 -4 22 8 30 42 27 13 -1 21 0 18 3 -2 2 5 12 17 22 36
29 2 104 -44 95 -12 -3 -27 0 -33 5 -6 5 -17 5 -24 1z m83 -53 c11 -32 8 -37
-28 -44 -22 -4 -26 -1 -26 19 0 13 6 29 13 36 10 11 9 12 -2 6 -10 -6 -12 -4
-7 4 13 20 40 8 50 -21z"/>
<path d="M713 353 c-9 -3 -10 -10 -3 -23 6 -11 10 -23 9 -27 -8 -50 22 -80 64
-64 21 8 23 6 21 -12 -1 -12 -3 -27 -3 -33 -2 -19 -52 -24 -59 -6 -3 9 0 18 6
20 16 5 5 22 -14 22 -8 0 -14 -6 -14 -14 0 -19 -50 -28 -57 -10 -3 8 -9 12
-13 9 -4 -2 -5 25 -2 60 4 56 2 65 -12 65 -14 0 -16 -11 -15 -74 1 -41 -2 -79
-6 -86 -6 -9 7 -11 49 -8 40 2 57 -1 61 -10 4 -10 17 -12 45 -9 23 2 43 7 45
9 10 10 10 148 0 152 -5 2 6 3 25 2 l35 -2 0 -49 c0 -28 -3 -57 -7 -66 -7 -16
16 -48 27 -38 2 3 5 37 7 77 2 66 4 72 24 72 18 0 22 -7 28 -46 3 -25 3 -51
-1 -57 -3 -5 -1 -7 4 -4 6 4 13 -2 16 -13 6 -25 55 -28 64 -4 4 11 8 12 13 4
5 -7 9 -2 12 14 5 25 -12 51 -19 29 -8 -24 -29 -42 -40 -35 -6 4 -15 20 -19
35 -6 28 -5 29 27 25 33 -3 34 -2 37 40 3 36 0 43 -20 51 -27 10 -48 4 -65
-18 -11 -14 -12 -14 -13 -1 0 12 -8 15 -32 12 -18 -2 -52 1 -76 6 -39 9 -43 8
-48 -12 -3 -12 -4 -26 -3 -32 5 -30 -3 -44 -27 -44 -24 0 -25 3 -23 40 3 41
-7 61 -28 53z m313 -27 c7 -19 -10 -49 -30 -52 -19 -3 -20 5 -6 40 11 29 28
34 36 12z"/>
<path d="M1100 340 c-11 -11 -20 -30 -21 -42 0 -13 -2 -31 -4 -41 -2 -10 3
-34 11 -53 11 -25 20 -34 39 -34 13 0 27 5 30 10 4 6 11 7 17 4 7 -4 8 -2 4 5
-4 6 -3 18 4 26 7 9 8 15 1 20 -6 3 -16 -5 -23 -19 -6 -14 -17 -26 -23 -26
-30 0 -50 114 -24 131 20 13 29 11 35 -6 4 -8 15 -15 25 -15 28 0 24 35 -6 48
-35 16 -42 15 -65 -8z"/>
<path d="M1440 286 c0 -42 -4 -76 -10 -76 -5 0 -6 7 -3 17 4 10 2 14 -4 10
-11 -7 -13 -2 -36 68 -18 58 -43 54 -39 -7 2 -25 -1 -62 -6 -81 -12 -43 -2
-62 28 -52 15 5 19 10 11 15 -7 4 -11 22 -9 40 l3 32 29 -46 c31 -50 55 -60
57 -23 5 126 3 171 -8 174 -10 4 -13 -15 -13 -71z"/>
<path d="M1572 335 c-15 -19 -20 -40 -19 -85 0 -33 3 -58 5 -55 3 3 10 -3 17
-11 8 -12 20 -15 43 -9 18 3 35 11 38 17 5 7 2 8 -7 3 -11 -6 -12 -5 -1 6 14
15 16 39 4 39 -5 0 -14 -12 -21 -26 -16 -35 -33 -26 -48 26 -14 49 -9 80 13
80 8 0 14 6 15 13 0 6 4 2 9 -10 10 -25 34 -30 46 -11 9 14 -31 48 -56 48 -10
0 -27 -11 -38 -25z"/>
<path d="M498 336 c-20 -11 -28 -11 -31 -3 -3 7 -6 3 -6 -8 -1 -11 -4 -43 -7
-70 -5 -41 -2 -55 13 -74 17 -21 24 -23 59 -15 30 8 43 18 59 47 l20 37 -21
37 c-31 54 -53 66 -86 49z m53 -56 c21 -43 14 -66 -22 -84 -27 -13 -30 -13
-44 7 -21 30 -19 73 6 98 26 26 40 21 60 -21z"/>
<path d="M1209 341 c0 -6 -1 -37 -1 -68 0 -32 -4 -67 -8 -79 -7 -18 -5 -21 13
-20 19 1 22 6 19 35 -3 28 -1 33 13 27 9 -3 23 -6 31 -6 8 0 14 -9 14 -20 0
-11 -5 -20 -12 -20 -6 0 -3 -6 8 -14 10 -8 21 -13 23 -10 2 2 5 42 5 89 1 59
-3 86 -11 90 -8 3 -13 -5 -14 -23 -2 -54 -4 -57 -34 -60 -23 -2 -27 0 -15 7 8
6 10 11 4 11 -7 0 -11 14 -10 31 0 18 -5 34 -11 36 -7 3 -13 0 -14 -6z"/>
<path d="M1496 269 c1 -45 -2 -76 -6 -69 -5 8 -9 5 -13 -9 -3 -12 -1 -19 3
-16 5 3 11 1 15 -5 4 -7 13 -7 26 0 15 8 17 15 9 29 -10 20 -11 113 -1 107 4
-3 8 6 9 20 1 19 -3 24 -21 24 -22 0 -23 -3 -21 -81z"/>
</g>
</svg>
